#!OML:ASF E:\motion texture\Top Level 1\Subject 1\Session 1\male.ASF
:FULLY-SPECIFIED
:DEGREES
321
root -14.986 18.0263 3.53268 710.503 -84.8513 -712.827
lowerback 7.39596 -5.56501 -3.80774
upperback -1.63043 -7.69736 1.90325
thorax -5.06633 -3.66713 4.95593
lowerneck -20.8783 -1.66042 -4.06502
upperneck 17.5593 -2.27924 5.41868
head 9.06107 -0.754903 2.2169
rclavicle 6.49156e-014 -7.55382e-015
rhumerus -61.892 0.545761 -65.7735
rradius 45.0678
rwrist 3.16841
rhand -9.7977 -7.21049
rfingers 7.12502
rthumb 16.1785 -36.5553
lclavicle 6.49156e-014 -7.55382e-015
lhumerus 0.0100161 -26.7415 90.6822
lradius 70.0095
lwrist 1.87592
lhand -9.54863 2.84523
lfingers 7.12502
lthumb 16.4183 32.1704
rfemur -86.1494 -9.11471 24.4113
rtibia 88.5571
rfoot -168.406 -68.8527
rtoes 18.9839
lfemur 8.36765 -5.24607 -26.5154
ltibia 18.0727
lfoot 705.892 -0.0914813
ltoes -4.91407
322
root -15.1271 18.01 3.52041 710.539 -84.9269 -712.514
lowerback 7.14041 -5.49832 -3.79059
upperback -1.69852 -7.59758 1.94073
thorax -5.0014 -3.61968 4.95106
lowerneck -20.8565 -1.71856 -4.11126
upperneck 17.4417 -2.34408 5.44103
head 9.02094 -0.786162 2.22202
rclavicle 5.2181e-014 -1.19271e-015
rhumerus -61.3104 0.382557 -66.2726
rradius 45.0819
rwrist 3.17418
rhand -9.89967 -7.24793
rfingers 7.12502
rthumb 16.0803 -36.6007
lclavicle 5.2181e-014 -1.19271e-015
lhumerus -0.707562 -26.59 91.041
lradius 69.7961
lwrist 1.85371
lhand -9.48587 2.84556
lfingers 7.12502
lthumb 16.4787 32.1657
rfemur -85.0722 -9.06648 24.2981
rtibia 89.1595
rfoot -167.738 -83.4402
rtoes 19.4002
lfemur 8.52517 -5.34696 -26.4715
ltibia 18.0355
lfoot 705.724 -0.153569
ltoes -5.62801
323
root -15.2704 17.9928 3.50763 710.574 -85.0037 -712.179
lowerback 6.85515 -5.42939 -3.7761
upperback -1.77884 -7.49455 1.97634
thorax -4.93277 -3.57052 4.94342
lowerneck -20.8283 -1.77639 -4.16502
upperneck 17.339 -2.41056 5.4775
head 8.9853 -0.817325 2.23321
rclavicle -5.7896e-014 1.51076e-014
rhumerus -60.6855 0.224903 -66.8165
rradius 45.107
rwrist 3.14965
rhand -10.0291 -7.30907
rfingers 7.12502
rthumb 15.9556 -36.6719
lclavicle -5.7896e-014 1.51076e-014
lhumerus -1.49807 -26.4633 91.4153
lradius 69.5545
lwrist 1.82408
lhand -9.43134 2.87671
lfingers 7.12502
lthumb 16.5312 32.1925
rfemur -83.8817 -9.01643 24.1553
rtibia 88.8534
rfoot -344.723 -82.0289
rtoes 20.0823
lfemur 8.67468 -5.40052 -26.4048
ltibia 17.9834
lfoot 705.564 -0.250454
ltoes -6.31645
324
root -15.4165 17.9745 3.49422 710.561 -85.0852 -711.785
lowerback 6.55178 -5.35641 -3.76821
upperback -1.8686 -7.3866 2.0083
thorax -4.86396 -3.51863 4.9345
lowerneck -20.799 -1.82979 -4.21764
upperneck 17.2525 -2.47469 5.52438
head 8.95517 -0.846253 2.24832
rclavicle -2.09097e-014 -9.93923e-015
rhumerus -60.0203 0.0785843 -67.405
rradius 45.1531
rwrist 3.08982
rhand -10.1833 -7.38872
rfingers 7.12502
rthumb 15.8072 -36.7634
lclavicle -2.09097e-014 -9.93923e-015
lhumerus -2.35217 -26.3746 91.7967
lradius 69.2843
lwrist 1.81182
lhand -9.39127 2.92772
lfingers 7.12502
lthumb 16.5698 32.2403
rfemur -82.5729 -8.9602 23.9827
rtibia 87.6438
rfoot -343.622 -67.5974
rtoes 20.9248
lfemur 8.82831 -5.40738 -26.3227
ltibia 17.9171
lfoot 705.415 -0.369946
ltoes -7.01998
325
root -15.5648 17.9556 3.48029 710.348 -85.1578 -711.181
lowerback 6.22858 -5.28421 -3.78279
upperback -1.9678 -7.28154 2.0328
thorax -4.79174 -3.46757 4.92951
lowerneck -20.7808 -1.87888 -4.26583
upperneck 17.1955 -2.53636 5.57506
head 8.93711 -0.873174 2.26468
rclavicle 2.33324e-014 -5.56597e-015
rhumerus -59.3197 -0.0560618 -68.0355
rradius 45.2234
rwrist 3.00628
rhand -10.3495 -7.50475
rfingers 7.12502
rthumb 15.6471 -36.892
lclavicle 2.33324e-014 -5.56597e-015
lhumerus -3.25486 -26.3262 92.176
lradius 68.9719
lwrist 1.80859
lhand -9.34142 2.98636
lfingers 7.12502
lthumb 16.6178 32.2949
rfemur -81.1509 -8.91163 23.7659
rtibia 85.6537
rfoot -342.006 -53.2489
rtoes 21.8033
lfemur 8.97736 -5.3851 -26.2483
ltibia 17.8529
lfoot 705.272 -0.504291
ltoes -7.73369
326
root -15.7159 17.9363 3.46554 709.955 -85.2052 -710.395
lowerback 5.89836 -5.21782 -3.82184
upperback -2.07753 -7.18645 2.05119
thorax -4.72341 -3.42047 4.93312
lowerneck -20.7509 -1.92427 -4.31351
upperneck 17.1509 -2.59497 5.6285
head 8.92122 -0.898584 2.28244
rclavicle 4.37078e-014 -9.54166e-015
rhumerus -58.5844 -0.177093 -68.7023
rradius 45.3094
rwrist 2.89354
rhand -10.547 -7.65909
rfingers 7.12502
rthumb 15.4568 -37.0611
lclavicle 4.37078e-014 -9.54166e-015
lhumerus -4.20352 -26.3181 92.5527
lradius 68.6153
lwrist 1.81868
lhand -9.27198 3.05603
lfingers 7.12502
lthumb 16.6846 32.359
rfemur -79.6098 -8.88381 23.5054
rtibia 83.1295
rfoot -340.267 -38.9556
rtoes 22.6493
lfemur 9.12882 -5.35098 -26.1848
ltibia 17.8012
lfoot 705.136 -0.65395
ltoes -8.4938
